<svg xmlns="http://www.w3.org/2000/svg" version="1.1" xmlns:xlink="http://www.w3.org/1999/xlink" xmlns:svgjs="http://svgjs.dev/svgjs" width="1440" height="560" preserveAspectRatio="none" viewBox="0 0 1440 560"><g mask="url(&quot;#SvgjsMask1353&quot;)" fill="none"><rect width="1440" height="560" x="0" y="0" fill="url(&quot;#SvgjsLinearGradient1354&quot;)"></rect><path d="M0 252.57L10 298.25L20 347.3L30 319.08L40 376.45L50 306.69L60 293.37L70 245.95L80 259.41L90 226.39L100 171.39L110 212.86L120 261.38L130 222.45L140 191.25L150 149.75L160 137.86L170 110.09L180 113.84L190 47.37L200 9.85L210 14.24L220 71.77L230 74.16L240 74.62L250 29.37L260 12.72L270 22.33L280 85.38L290 131.5L300 181.44L310 189.27L320 248.52L330 317.38L340 294.38L350 360.56L360 315.3L370 366.33L380 364.51L390 430.49L400 431.9L410 492.6L420 497.18L430 493.71L440 469.88L450 475.2L460 499.55L470 517.75L480 451.14L490 448.34L500 399.37L510 395.4L520 361.37L530 422.76L540 484.21L550 539.63L560 519.33L570 487.05L580 464.91L590 497.51L600 542.73L610 529.59L620 504.77L630 495.54L640 460.38L650 430.39L660 392.35L670 340.15L680 387.58L690 456.84L700 443.18L710 457.9L720 425.88L730 468.88L740 420L750 352.12L760 319.33L770 374.61L780 372.26L790 436.08L800 377.1L810 375.97L820 399.55L830 457.13L840 512.49L850 553.41L860 549.01L870 541.94L880 542.69L890 520.26L900 550.64L910 480.9L920 440.87L930 373.49L940 327.35L950 278.54L960 308.67L970 371L980 311.29L990 245.57L1000 242.42L1010 198.35L1020 224.55L1030 173.81L1040 185.37L1050 182.88L1060 156.26L1070 114.8L1080 138.99L1090 87.65L1100 106.58L1110 144.14L1120 92.19L1130 148.01L1140 83.82L1150 72.57L1160 35.72L1170 62.77L1180 44.73L1190 46.36L1200 114.87L1210 96.84L1220 94.11L1230 26.56L1240 69.76L1250 97.72L1260 51.33L1270 17.95L1280 69.65L1290 138.28L1300 165.32L1310 227.79L1320 204.97L1330 253.46L1340 206.9L1350 261.26L1360 276.19L1370 318.62L1380 325.94L1390 328.01L1400 333.3L1410 300.5L1420 308.71L1430 354.16L1440 412.74" stroke="rgba(56, 32, 89, 1)" stroke-width="2"></path><path d="M0 252.57L10 298.25L20 347.3L30 319.08L40 376.45L50 306.69L60 293.37L70 245.95L80 259.41L90 226.39L100 171.39L110 212.86L120 261.38L130 222.45L140 191.25L150 149.75L160 137.86L170 110.09L180 113.84L190 47.37L200 9.85L210 14.24L220 71.77L230 74.16L240 74.62L250 29.37L260 12.72L270 22.33L280 85.38L290 131.5L300 181.44L310 189.27L320 248.52L330 317.38L340 294.38L350 360.56L360 315.3L370 366.33L380 364.51L390 430.49L400 431.9L410 492.6L420 497.18L430 493.71L440 469.88L450 475.2L460 499.55L470 517.75L480 451.14L490 448.34L500 399.37L510 395.4L520 361.37L530 422.76L540 484.21L550 539.63L560 519.33L570 487.05L580 464.91L590 497.51L600 542.73L610 529.59L620 504.77L630 495.54L640 460.38L650 430.39L660 392.35L670 340.15L680 387.58L690 456.84L700 443.18L710 457.9L720 425.88L730 468.88L740 420L750 352.12L760 319.33L770 374.61L780 372.26L790 436.08L800 377.1L810 375.97L820 399.55L830 457.13L840 512.49L850 553.41L860 549.01L870 541.94L880 542.69L890 520.26L900 550.64L910 480.9L920 440.87L930 373.49L940 327.35L950 278.54L960 308.67L970 371L980 311.29L990 245.57L1000 242.42L1010 198.35L1020 224.55L1030 173.81L1040 185.37L1050 182.88L1060 156.26L1070 114.8L1080 138.99L1090 87.65L1100 106.58L1110 144.14L1120 92.19L1130 148.01L1140 83.82L1150 72.57L1160 35.72L1170 62.77L1180 44.73L1190 46.36L1200 114.87L1210 96.84L1220 94.11L1230 26.56L1240 69.76L1250 97.72L1260 51.33L1270 17.95L1280 69.65L1290 138.28L1300 165.32L1310 227.79L1320 204.97L1330 253.46L1340 206.9L1350 261.26L1360 276.19L1370 318.62L1380 325.94L1390 328.01L1400 333.3L1410 300.5L1420 308.71L1430 354.16L1440 412.74L1440 560L0 560z" fill="url(&quot;#SvgjsLinearGradient1355&quot;)"></path></g><defs><mask id="SvgjsMask1353"><rect width="1440" height="560" fill="#ffffff"></rect></mask><linearGradient x1="84.72%" y1="139.29%" x2="15.28%" y2="-39.29%" gradientUnits="userSpaceOnUse" id="SvgjsLinearGradient1354"><stop stop-color="#0e2a47" offset="0"></stop><stop stop-color="rgba(100, 43, 179, 1)" offset="1"></stop></linearGradient><linearGradient x1="50%" y1="0%" x2="50%" y2="100%" id="SvgjsLinearGradient1355"><stop stop-opacity="0.65" stop-color="rgba(56, 32, 89, 1)" offset="0"></stop><stop stop-opacity="0" stop-color="#693ca7" offset="0.8"></stop></linearGradient></defs></svg>